<svg xmlns="http://www.w3.org/2000/svg" viewBox="0 0 64 64">
  <rect width="64" height="64" rx="14" fill="#f8fcfa"/>
  <path d="M8 44c10 8 33 9 48 0-4 11-15 17-27 16C17 59 9 53 8 44Z" fill="#67c8e8"/>
  <path d="M12 42c4-13 14-21 27-21 6 0 10 1 13 4-5 1-9 4-12 8 7 0 11 3 13 8-7 5-18 7-29 5-5-1-9-2-12-4Z" fill="#0f7b45"/>
  <path d="M22 8v34" stroke="#0b3922" stroke-width="4" stroke-linecap="round"/>
  <path d="M22 9h23l-7 7 7 7H22Z" fill="#d72f35"/>
  <circle cx="30" cy="39" r="7" fill="#f8fcfa"/>
  <path d="M42 45h12" stroke="#0b3922" stroke-width="4" stroke-linecap="round"/>
</svg>
