<svg xmlns="http://www.w3.org/2000/svg" viewBox="0 0 330 96" role="img" aria-labelledby="title desc">
  <title id="title">Mini Golf Canada</title>
  <desc id="desc">Mini Golf Canada logo with a putting green, flag and Canada wordmark.</desc>
  <g transform="translate(8 12)">
    <path d="M0 48c13 11 45 13 68 0-7 16-22 25-40 23C13 70 1 61 0 48Z" fill="#67c8e8"/>
    <path d="M6 45c5-18 19-29 38-29 8 0 15 2 19 6-7 2-12 6-16 11 10 0 17 4 20 11-10 7-25 9-41 7-7-1-14-3-20-6Z" fill="#0f7b45"/>
    <path d="M21 0v47" stroke="#0b3922" stroke-width="5" stroke-linecap="round"/>
    <path d="M21 1h32l-10 10 10 10H21Z" fill="#d72f35"/>
    <circle cx="33" cy="41" r="8" fill="#f8fcfa"/>
  </g>
  <text x="94" y="40" fill="#0b3922" font-family="Arial, Helvetica, sans-serif" font-size="30" font-weight="800">Mini Golf</text>
  <text x="94" y="73" fill="#d72f35" font-family="Arial, Helvetica, sans-serif" font-size="31" font-weight="900">Canada</text>
</svg>
